# xmcd
#
# Track frame offsets:
#	150
#	10313
#	31163
#	46838
#	77364
#	88352
#	114602
#	128928
#	146778
#	162529
#	173630
#	201268
#	220394
#	238217
#	260305
#	279117
#	310882
#	337133
#
# Disc length: 4793 seconds
#
# Revision: 1
# Processed by: cddbd v1.4PL0 Copyright (c) Steve Scherf et al.
# Submitted via: audiograbber 1.80
#
DISCID=0612b712
DTITLE=Steve Ray Vaughan and Double Trouble - The Sky Is Crying/Blues At SunRise
DYEAR=1900
DGENRE=
TTITLE0=Boot Hill
TTITLE1=The Sky Is Crying
TTITLE2=Empty Arms
TTITLE3=Little Wing
TTITLE4=Wham
TTITLE5=May I Have A Talk With You
TTITLE6=Close To You
TTITLE7=Chitling Con Carne
TTITLE8=Go Excited
TTITLE9=Life By The Drop
TTITLE10=Ain't Gone 'n' Give Up On Love
TTITLE11=Leave My Girl Alone
TTITLE12=Chitling Con Carne
TTITLE13=The Things (That) I Used To Do
TTITLE14=The Sky Is Crying
TTITLE15=Texas Flood (Video Version) (Live)
TTITLE16=May I Have A Talk With You
TTITLE17=Dirty Pool
EXTD=1991  1-10\n2000  11-18
EXTT0=
EXTT1=
EXTT2=
EXTT3=
EXTT4=
EXTT5=
EXTT6=
EXTT7=
EXTT8=
EXTT9=
EXTT10=
EXTT11=
EXTT12=
EXTT13=
EXTT14=
EXTT15=
EXTT16=
EXTT17=
PLAYORDER=
